<svg xmlns="http://www.w3.org/2000/svg" viewBox="0 0 800 480" width="800" height="480" role="img" aria-label="Abstract space cover">
  <defs>
    <linearGradient id="bg2" x1="0" y1="0" x2="1" y2="1">
      <stop offset="0%" stop-color="#a78bfa"/>
      <stop offset="100%" stop-color="#5b21b6"/>
    </linearGradient>
    <radialGradient id="pl2" cx="38%" cy="34%" r="75%">
      <stop offset="0%" stop-color="#ddd6fe"/>
      <stop offset="100%" stop-color="#7c3aed"/>
    </radialGradient>
    <radialGradient id="gl2" cx="50%" cy="50%" r="50%">
      <stop offset="0%" stop-color="#c4b5fd" stop-opacity="0.55"/>
      <stop offset="100%" stop-color="#c4b5fd" stop-opacity="0"/>
    </radialGradient>
  </defs>
  <rect width="800" height="480" fill="url(#bg2)"/>
  <g><circle cx="684.5" cy="231.6" r="0.40" fill="#ffffff" opacity="0.76"/><circle cx="604.9" cy="26.8" r="0.49" fill="#ffffff" opacity="0.39"/><circle cx="547.5" cy="29.2" r="1.43" fill="#ffffff" opacity="0.68"/><circle cx="311.9" cy="417.6" r="1.65" fill="#ffffff" opacity="0.39"/><circle cx="526.1" cy="61.1" r="0.40" fill="#ffffff" opacity="0.71"/><circle cx="712.3" cy="141.9" r="1.12" fill="#ffffff" opacity="0.52"/><circle cx="491.4" cy="194.2" r="1.33" fill="#ffffff" opacity="0.80"/><circle cx="271.9" cy="364.5" r="1.48" fill="#ffffff" opacity="0.77"/><circle cx="23.6" cy="72.2" r="1.09" fill="#ffffff" opacity="0.74"/><circle cx="71.0" cy="239.8" r="0.88" fill="#ffffff" opacity="0.57"/><circle cx="474.2" cy="52.9" r="1.65" fill="#ffffff" opacity="0.83"/><circle cx="145.6" cy="99.0" r="0.41" fill="#ffffff" opacity="0.42"/><circle cx="652.3" cy="471.1" r="0.68" fill="#ffffff" opacity="0.41"/><circle cx="535.1" cy="4.8" r="0.74" fill="#ffffff" opacity="0.69"/><circle cx="288.3" cy="308.5" r="0.90" fill="#ffffff" opacity="0.43"/><circle cx="512.4" cy="335.7" r="1.61" fill="#ffffff" opacity="0.54"/><circle cx="270.7" cy="188.4" r="0.80" fill="#ffffff" opacity="0.57"/><circle cx="282.4" cy="198.6" r="1.19" fill="#ffffff" opacity="0.61"/><circle cx="324.6" cy="315.3" r="1.15" fill="#ffffff" opacity="0.44"/><circle cx="412.7" cy="317.6" r="0.62" fill="#ffffff" opacity="0.84"/><circle cx="161.4" cy="280.8" r="1.58" fill="#ffffff" opacity="0.75"/><circle cx="171.3" cy="244.7" r="1.27" fill="#ffffff" opacity="0.69"/><circle cx="364.8" cy="175.6" r="0.98" fill="#ffffff" opacity="0.62"/><circle cx="290.9" cy="334.1" r="1.42" fill="#ffffff" opacity="0.76"/><circle cx="534.3" cy="477.3" r="0.59" fill="#ffffff" opacity="0.48"/><circle cx="44.6" cy="286.0" r="1.04" fill="#ffffff" opacity="0.42"/><circle cx="243.6" cy="360.3" r="1.41" fill="#ffffff" opacity="0.46"/><circle cx="679.0" cy="19.5" r="1.12" fill="#ffffff" opacity="0.81"/><circle cx="188.8" cy="42.2" r="1.47" fill="#ffffff" opacity="0.81"/><circle cx="61.7" cy="404.8" r="0.57" fill="#ffffff" opacity="0.75"/><circle cx="558.6" cy="282.7" r="1.51" fill="#ffffff" opacity="0.54"/><circle cx="143.1" cy="382.4" r="0.88" fill="#ffffff" opacity="0.83"/><circle cx="568.6" cy="203.4" r="1.39" fill="#ffffff" opacity="0.53"/><circle cx="668.1" cy="173.4" r="0.79" fill="#ffffff" opacity="0.31"/><circle cx="64.4" cy="27.4" r="1.74" fill="#ffffff" opacity="0.56"/><circle cx="673.6" cy="335.5" r="0.95" fill="#ffffff" opacity="0.66"/><circle cx="139.6" cy="83.5" r="1.47" fill="#ffffff" opacity="0.76"/><circle cx="376.3" cy="300.0" r="0.62" fill="#ffffff" opacity="0.74"/><circle cx="535.8" cy="54.4" r="1.05" fill="#ffffff" opacity="0.31"/><circle cx="33.4" cy="443.8" r="1.60" fill="#ffffff" opacity="0.74"/><circle cx="516.9" cy="452.4" r="1.38" fill="#ffffff" opacity="0.42"/><circle cx="605.0" cy="50.6" r="1.37" fill="#ffffff" opacity="0.57"/><circle cx="96.3" cy="116.6" r="1.29" fill="#ffffff" opacity="0.36"/><circle cx="97.9" cy="45.4" r="1.44" fill="#ffffff" opacity="0.50"/><circle cx="194.8" cy="27.8" r="0.52" fill="#ffffff" opacity="0.44"/><circle cx="443.0" cy="333.7" r="0.67" fill="#ffffff" opacity="0.38"/></g>
  <circle cx="560" cy="300" r="210" fill="url(#gl2)"/>
  <g fill="none" stroke="#ede9fe" stroke-opacity="0.5">
    <ellipse cx="560" cy="300" rx="270" ry="92" transform="rotate(-22 560 300)" stroke-width="1.5"/>
    <ellipse cx="560" cy="300" rx="200" ry="66" transform="rotate(-22 560 300)" stroke-width="1.2" stroke-opacity="0.35"/>
  </g>
  <circle cx="560" cy="300" r="120" fill="url(#pl2)"/>
  <ellipse cx="560" cy="300" rx="178" ry="60" fill="none" stroke="#ede9fe" stroke-width="3" stroke-opacity="0.85" transform="rotate(-22 560 300)"/>
  <circle cx="190" cy="150" r="5" fill="#ffffff" opacity="0.9"/>
  <circle cx="120" cy="320" r="3" fill="#ffffff" opacity="0.7"/>
</svg>