<svg xmlns="http://www.w3.org/2000/svg" viewBox="0 0 800 480" width="800" height="480" role="img" aria-label="Abstract space cover">
  <defs>
    <linearGradient id="bg1" x1="0" y1="0" x2="1" y2="1">
      <stop offset="0%" stop-color="#22d3ee"/>
      <stop offset="100%" stop-color="#0e7490"/>
    </linearGradient>
    <radialGradient id="pl1" cx="38%" cy="34%" r="75%">
      <stop offset="0%" stop-color="#a5f3fc"/>
      <stop offset="100%" stop-color="#0891b2"/>
    </radialGradient>
    <radialGradient id="gl1" cx="50%" cy="50%" r="50%">
      <stop offset="0%" stop-color="#67e8f9" stop-opacity="0.55"/>
      <stop offset="100%" stop-color="#67e8f9" stop-opacity="0"/>
    </radialGradient>
  </defs>
  <rect width="800" height="480" fill="url(#bg1)"/>
  <g><circle cx="108.1" cy="303.4" r="1.04" fill="#ffffff" opacity="0.49"/><circle cx="662.6" cy="227.8" r="0.97" fill="#ffffff" opacity="0.40"/><circle cx="26.0" cy="105.8" r="1.67" fill="#ffffff" opacity="0.30"/><circle cx="704.9" cy="315.4" r="0.96" fill="#ffffff" opacity="0.45"/><circle cx="50.7" cy="37.2" r="1.26" fill="#ffffff" opacity="0.25"/><circle cx="323.1" cy="232.1" r="0.48" fill="#ffffff" opacity="0.81"/><circle cx="191.2" cy="148.9" r="1.67" fill="#ffffff" opacity="0.55"/><circle cx="62.9" cy="235.3" r="1.79" fill="#ffffff" opacity="0.52"/><circle cx="703.4" cy="398.6" r="0.46" fill="#ffffff" opacity="0.69"/><circle cx="68.7" cy="196.3" r="0.78" fill="#ffffff" opacity="0.69"/><circle cx="336.7" cy="56.7" r="0.84" fill="#ffffff" opacity="0.73"/><circle cx="547.2" cy="395.8" r="1.42" fill="#ffffff" opacity="0.32"/><circle cx="729.6" cy="128.1" r="1.51" fill="#ffffff" opacity="0.84"/><circle cx="584.0" cy="387.7" r="0.69" fill="#ffffff" opacity="0.70"/><circle cx="747.3" cy="331.0" r="1.18" fill="#ffffff" opacity="0.33"/><circle cx="516.4" cy="140.4" r="1.55" fill="#ffffff" opacity="0.35"/><circle cx="515.3" cy="310.6" r="0.72" fill="#ffffff" opacity="0.42"/><circle cx="193.0" cy="390.6" r="0.52" fill="#ffffff" opacity="0.39"/><circle cx="558.3" cy="94.8" r="1.13" fill="#ffffff" opacity="0.37"/><circle cx="410.0" cy="409.3" r="1.24" fill="#ffffff" opacity="0.61"/><circle cx="649.2" cy="211.6" r="1.01" fill="#ffffff" opacity="0.55"/><circle cx="657.0" cy="260.3" r="1.79" fill="#ffffff" opacity="0.77"/><circle cx="674.2" cy="220.2" r="0.71" fill="#ffffff" opacity="0.29"/><circle cx="544.6" cy="3.2" r="0.47" fill="#ffffff" opacity="0.36"/><circle cx="199.4" cy="46.5" r="1.53" fill="#ffffff" opacity="0.36"/><circle cx="744.1" cy="186.7" r="0.50" fill="#ffffff" opacity="0.84"/><circle cx="195.1" cy="272.0" r="1.60" fill="#ffffff" opacity="0.35"/><circle cx="68.6" cy="138.8" r="0.44" fill="#ffffff" opacity="0.66"/><circle cx="141.5" cy="282.0" r="1.51" fill="#ffffff" opacity="0.25"/><circle cx="650.8" cy="193.6" r="1.25" fill="#ffffff" opacity="0.59"/><circle cx="42.4" cy="5.1" r="1.25" fill="#ffffff" opacity="0.63"/><circle cx="46.3" cy="352.9" r="1.67" fill="#ffffff" opacity="0.77"/><circle cx="795.2" cy="307.2" r="0.75" fill="#ffffff" opacity="0.37"/><circle cx="619.4" cy="103.3" r="1.50" fill="#ffffff" opacity="0.72"/><circle cx="618.2" cy="305.1" r="1.31" fill="#ffffff" opacity="0.38"/><circle cx="659.5" cy="355.4" r="1.58" fill="#ffffff" opacity="0.58"/><circle cx="484.3" cy="153.2" r="1.71" fill="#ffffff" opacity="0.43"/><circle cx="218.3" cy="183.9" r="1.67" fill="#ffffff" opacity="0.75"/><circle cx="234.4" cy="2.6" r="1.27" fill="#ffffff" opacity="0.69"/><circle cx="190.1" cy="135.2" r="1.20" fill="#ffffff" opacity="0.40"/><circle cx="105.5" cy="194.8" r="1.55" fill="#ffffff" opacity="0.65"/><circle cx="624.2" cy="382.5" r="0.79" fill="#ffffff" opacity="0.44"/><circle cx="505.4" cy="226.6" r="0.78" fill="#ffffff" opacity="0.30"/><circle cx="592.8" cy="170.3" r="1.60" fill="#ffffff" opacity="0.33"/><circle cx="506.4" cy="57.5" r="0.81" fill="#ffffff" opacity="0.72"/><circle cx="86.2" cy="452.6" r="1.67" fill="#ffffff" opacity="0.77"/></g>
  <circle cx="560" cy="300" r="210" fill="url(#gl1)"/>
  <g fill="none" stroke="#cffafe" stroke-opacity="0.5">
    <ellipse cx="560" cy="300" rx="270" ry="92" transform="rotate(-22 560 300)" stroke-width="1.5"/>
    <ellipse cx="560" cy="300" rx="200" ry="66" transform="rotate(-22 560 300)" stroke-width="1.2" stroke-opacity="0.35"/>
  </g>
  <circle cx="560" cy="300" r="120" fill="url(#pl1)"/>
  <ellipse cx="560" cy="300" rx="178" ry="60" fill="none" stroke="#cffafe" stroke-width="3" stroke-opacity="0.85" transform="rotate(-22 560 300)"/>
  <circle cx="190" cy="150" r="5" fill="#ffffff" opacity="0.9"/>
  <circle cx="120" cy="320" r="3" fill="#ffffff" opacity="0.7"/>
</svg>