<svg xmlns="http://www.w3.org/2000/svg" viewBox="0 0 800 480" width="800" height="480" role="img" aria-label="Abstract space cover">
  <defs>
    <linearGradient id="bg0" x1="0" y1="0" x2="1" y2="1">
      <stop offset="0%" stop-color="#3b82f6"/>
      <stop offset="100%" stop-color="#1e3a8a"/>
    </linearGradient>
    <radialGradient id="pl0" cx="38%" cy="34%" r="75%">
      <stop offset="0%" stop-color="#93c5fd"/>
      <stop offset="100%" stop-color="#1d4ed8"/>
    </radialGradient>
    <radialGradient id="gl0" cx="50%" cy="50%" r="50%">
      <stop offset="0%" stop-color="#60a5fa" stop-opacity="0.55"/>
      <stop offset="100%" stop-color="#60a5fa" stop-opacity="0"/>
    </radialGradient>
  </defs>
  <rect width="800" height="480" fill="url(#bg0)"/>
  <g><circle cx="541.7" cy="92.5" r="1.14" fill="#ffffff" opacity="0.35"/><circle cx="70.2" cy="365.2" r="0.79" fill="#ffffff" opacity="0.58"/><circle cx="205.4" cy="328.0" r="1.52" fill="#ffffff" opacity="0.43"/><circle cx="188.8" cy="95.3" r="1.28" fill="#ffffff" opacity="0.69"/><circle cx="234.9" cy="232.1" r="1.37" fill="#ffffff" opacity="0.65"/><circle cx="445.0" cy="292.1" r="1.19" fill="#ffffff" opacity="0.49"/><circle cx="51.1" cy="30.7" r="1.63" fill="#ffffff" opacity="0.44"/><circle cx="339.5" cy="304.8" r="1.25" fill="#ffffff" opacity="0.28"/><circle cx="183.9" cy="385.5" r="0.55" fill="#ffffff" opacity="0.82"/><circle cx="256.2" cy="52.5" r="1.41" fill="#ffffff" opacity="0.37"/><circle cx="312.7" cy="348.9" r="0.52" fill="#ffffff" opacity="0.71"/><circle cx="198.3" cy="389.7" r="1.69" fill="#ffffff" opacity="0.46"/><circle cx="149.3" cy="108.6" r="1.53" fill="#ffffff" opacity="0.59"/><circle cx="561.4" cy="60.2" r="1.07" fill="#ffffff" opacity="0.80"/><circle cx="469.8" cy="401.7" r="0.52" fill="#ffffff" opacity="0.72"/><circle cx="760.1" cy="129.6" r="0.51" fill="#ffffff" opacity="0.66"/><circle cx="114.6" cy="166.3" r="1.46" fill="#ffffff" opacity="0.65"/><circle cx="443.2" cy="320.1" r="1.54" fill="#ffffff" opacity="0.70"/><circle cx="348.5" cy="28.4" r="1.32" fill="#ffffff" opacity="0.56"/><circle cx="503.5" cy="18.8" r="1.72" fill="#ffffff" opacity="0.28"/><circle cx="441.5" cy="54.4" r="0.85" fill="#ffffff" opacity="0.54"/><circle cx="445.1" cy="68.8" r="1.06" fill="#ffffff" opacity="0.72"/><circle cx="19.1" cy="368.7" r="1.70" fill="#ffffff" opacity="0.50"/><circle cx="724.2" cy="148.7" r="0.80" fill="#ffffff" opacity="0.58"/><circle cx="251.6" cy="56.1" r="1.24" fill="#ffffff" opacity="0.73"/><circle cx="298.5" cy="257.9" r="1.20" fill="#ffffff" opacity="0.62"/><circle cx="200.2" cy="444.6" r="1.00" fill="#ffffff" opacity="0.81"/><circle cx="463.2" cy="265.5" r="1.33" fill="#ffffff" opacity="0.42"/><circle cx="646.6" cy="188.4" r="0.96" fill="#ffffff" opacity="0.49"/><circle cx="87.8" cy="59.0" r="0.88" fill="#ffffff" opacity="0.65"/><circle cx="40.9" cy="285.9" r="0.50" fill="#ffffff" opacity="0.38"/><circle cx="121.9" cy="254.1" r="1.20" fill="#ffffff" opacity="0.65"/><circle cx="127.6" cy="8.4" r="1.34" fill="#ffffff" opacity="0.81"/><circle cx="15.0" cy="406.3" r="1.11" fill="#ffffff" opacity="0.63"/><circle cx="26.4" cy="440.7" r="0.57" fill="#ffffff" opacity="0.47"/><circle cx="457.5" cy="196.9" r="1.16" fill="#ffffff" opacity="0.32"/><circle cx="798.4" cy="441.2" r="1.26" fill="#ffffff" opacity="0.47"/><circle cx="208.7" cy="190.7" r="0.92" fill="#ffffff" opacity="0.27"/><circle cx="384.9" cy="16.6" r="0.63" fill="#ffffff" opacity="0.33"/><circle cx="449.4" cy="152.3" r="1.09" fill="#ffffff" opacity="0.74"/><circle cx="705.5" cy="265.2" r="1.59" fill="#ffffff" opacity="0.29"/><circle cx="458.5" cy="142.1" r="1.67" fill="#ffffff" opacity="0.30"/><circle cx="538.4" cy="242.2" r="0.74" fill="#ffffff" opacity="0.38"/><circle cx="356.8" cy="53.5" r="0.47" fill="#ffffff" opacity="0.38"/><circle cx="185.2" cy="282.6" r="1.64" fill="#ffffff" opacity="0.40"/><circle cx="139.7" cy="165.9" r="1.75" fill="#ffffff" opacity="0.51"/></g>
  <circle cx="560" cy="300" r="210" fill="url(#gl0)"/>
  <g fill="none" stroke="#bfdbfe" stroke-opacity="0.5">
    <ellipse cx="560" cy="300" rx="270" ry="92" transform="rotate(-22 560 300)" stroke-width="1.5"/>
    <ellipse cx="560" cy="300" rx="200" ry="66" transform="rotate(-22 560 300)" stroke-width="1.2" stroke-opacity="0.35"/>
  </g>
  <circle cx="560" cy="300" r="120" fill="url(#pl0)"/>
  <ellipse cx="560" cy="300" rx="178" ry="60" fill="none" stroke="#bfdbfe" stroke-width="3" stroke-opacity="0.85" transform="rotate(-22 560 300)"/>
  <circle cx="190" cy="150" r="5" fill="#ffffff" opacity="0.9"/>
  <circle cx="120" cy="320" r="3" fill="#ffffff" opacity="0.7"/>
</svg>