<svg xmlns="http://www.w3.org/2000/svg" viewBox="0 0 800 480" width="800" height="480" role="img" aria-label="Abstract space cover">
  <defs>
    <linearGradient id="bg3" x1="0" y1="0" x2="1" y2="1">
      <stop offset="0%" stop-color="#fb7185"/>
      <stop offset="100%" stop-color="#b45309"/>
    </linearGradient>
    <radialGradient id="pl3" cx="38%" cy="34%" r="75%">
      <stop offset="0%" stop-color="#fed7aa"/>
      <stop offset="100%" stop-color="#ea580c"/>
    </radialGradient>
    <radialGradient id="gl3" cx="50%" cy="50%" r="50%">
      <stop offset="0%" stop-color="#fda4af" stop-opacity="0.55"/>
      <stop offset="100%" stop-color="#fda4af" stop-opacity="0"/>
    </radialGradient>
  </defs>
  <rect width="800" height="480" fill="url(#bg3)"/>
  <g><circle cx="515.4" cy="167.6" r="0.40" fill="#ffffff" opacity="0.80"/><circle cx="775.5" cy="51.4" r="1.57" fill="#ffffff" opacity="0.67"/><circle cx="376.0" cy="311.4" r="1.05" fill="#ffffff" opacity="0.29"/><circle cx="463.2" cy="225.6" r="0.59" fill="#ffffff" opacity="0.48"/><circle cx="579.0" cy="408.2" r="1.17" fill="#ffffff" opacity="0.81"/><circle cx="5.4" cy="341.8" r="0.69" fill="#ffffff" opacity="0.84"/><circle cx="536.5" cy="239.0" r="0.74" fill="#ffffff" opacity="0.36"/><circle cx="231.6" cy="223.7" r="0.84" fill="#ffffff" opacity="0.85"/><circle cx="158.9" cy="95.1" r="0.62" fill="#ffffff" opacity="0.61"/><circle cx="600.1" cy="121.1" r="1.65" fill="#ffffff" opacity="0.26"/><circle cx="170.6" cy="210.5" r="1.49" fill="#ffffff" opacity="0.60"/><circle cx="521.5" cy="371.2" r="1.07" fill="#ffffff" opacity="0.63"/><circle cx="183.5" cy="121.3" r="1.60" fill="#ffffff" opacity="0.76"/><circle cx="160.1" cy="151.7" r="1.36" fill="#ffffff" opacity="0.49"/><circle cx="285.9" cy="132.4" r="1.12" fill="#ffffff" opacity="0.41"/><circle cx="226.3" cy="467.9" r="0.92" fill="#ffffff" opacity="0.67"/><circle cx="242.3" cy="267.9" r="0.57" fill="#ffffff" opacity="0.45"/><circle cx="638.0" cy="417.3" r="1.35" fill="#ffffff" opacity="0.72"/><circle cx="211.9" cy="9.0" r="0.86" fill="#ffffff" opacity="0.30"/><circle cx="465.6" cy="129.5" r="0.87" fill="#ffffff" opacity="0.36"/><circle cx="347.1" cy="43.7" r="1.09" fill="#ffffff" opacity="0.84"/><circle cx="108.7" cy="243.3" r="1.60" fill="#ffffff" opacity="0.35"/><circle cx="449.7" cy="14.7" r="1.44" fill="#ffffff" opacity="0.75"/><circle cx="214.3" cy="101.9" r="1.51" fill="#ffffff" opacity="0.46"/><circle cx="317.2" cy="272.3" r="0.56" fill="#ffffff" opacity="0.73"/><circle cx="695.5" cy="78.8" r="1.35" fill="#ffffff" opacity="0.51"/><circle cx="298.4" cy="70.6" r="1.51" fill="#ffffff" opacity="0.75"/><circle cx="404.3" cy="161.4" r="1.34" fill="#ffffff" opacity="0.51"/><circle cx="551.0" cy="236.3" r="1.45" fill="#ffffff" opacity="0.29"/><circle cx="761.1" cy="28.9" r="0.83" fill="#ffffff" opacity="0.40"/><circle cx="223.8" cy="74.8" r="1.42" fill="#ffffff" opacity="0.35"/><circle cx="263.1" cy="227.3" r="1.58" fill="#ffffff" opacity="0.82"/><circle cx="126.9" cy="1.0" r="1.04" fill="#ffffff" opacity="0.51"/><circle cx="178.5" cy="7.1" r="0.97" fill="#ffffff" opacity="0.72"/><circle cx="464.0" cy="164.3" r="1.04" fill="#ffffff" opacity="0.56"/><circle cx="186.6" cy="329.5" r="1.04" fill="#ffffff" opacity="0.28"/><circle cx="758.5" cy="145.8" r="1.41" fill="#ffffff" opacity="0.27"/><circle cx="120.3" cy="351.9" r="1.26" fill="#ffffff" opacity="0.55"/><circle cx="553.1" cy="375.8" r="1.54" fill="#ffffff" opacity="0.69"/><circle cx="407.4" cy="336.4" r="0.50" fill="#ffffff" opacity="0.82"/><circle cx="275.2" cy="108.8" r="1.51" fill="#ffffff" opacity="0.38"/><circle cx="81.0" cy="51.4" r="0.76" fill="#ffffff" opacity="0.75"/><circle cx="368.1" cy="124.1" r="0.50" fill="#ffffff" opacity="0.36"/><circle cx="733.0" cy="64.0" r="0.94" fill="#ffffff" opacity="0.68"/><circle cx="336.5" cy="306.9" r="1.42" fill="#ffffff" opacity="0.61"/><circle cx="618.9" cy="322.9" r="0.70" fill="#ffffff" opacity="0.44"/></g>
  <circle cx="560" cy="300" r="210" fill="url(#gl3)"/>
  <g fill="none" stroke="#ffe4e6" stroke-opacity="0.5">
    <ellipse cx="560" cy="300" rx="270" ry="92" transform="rotate(-22 560 300)" stroke-width="1.5"/>
    <ellipse cx="560" cy="300" rx="200" ry="66" transform="rotate(-22 560 300)" stroke-width="1.2" stroke-opacity="0.35"/>
  </g>
  <circle cx="560" cy="300" r="120" fill="url(#pl3)"/>
  <ellipse cx="560" cy="300" rx="178" ry="60" fill="none" stroke="#ffe4e6" stroke-width="3" stroke-opacity="0.85" transform="rotate(-22 560 300)"/>
  <circle cx="190" cy="150" r="5" fill="#ffffff" opacity="0.9"/>
  <circle cx="120" cy="320" r="3" fill="#ffffff" opacity="0.7"/>
</svg>